<?xml version="1.0" encoding="UTF-8"?>
<svg width="81px" height="92px" viewBox="0 0 81 92" version="1.1" xmlns="http://www.w3.org/2000/svg" xmlns:xlink="http://www.w3.org/1999/xlink">
    <!-- Generator: Sketch 53.2 (72643) - https://sketchapp.com -->
    <title>15-cloud-computer-file-folder-upload</title>
    <desc>Created with Sketch.</desc>
    <g id="Symbols" stroke="none" stroke-width="1" fill="none" fill-rule="evenodd">
        <g id="panel/add-media" transform="translate(-757.000000, -335.000000)">
            <g id="15-cloud-computer-file-folder-upload" transform="translate(756.500000, 335.000000)">
                <circle id="Oval" fill="#F0FBFF" cx="40.59" cy="51.09" r="40"></circle>
                <ellipse id="Oval" fill="#D6DAFF" cx="40.59" cy="80.99" rx="12" ry="1.5"></ellipse>
                <rect id="Rectangle" fill="#FFFFFF" x="37.09" y="74.59" width="7" height="3"></rect>
                <rect id="Rectangle" stroke="#1565C0" stroke-linecap="round" stroke-linejoin="round" x="37.09" y="74.59" width="7" height="3"></rect>
                <path d="M57.09,69.59 L24.09,69.59 L24.09,52.59 C24.09,50.9331458 25.4331458,49.59 27.09,49.59 L54.09,49.59 C55.7468542,49.59 57.09,50.9331458 57.09,52.59 L57.09,69.59 Z" id="Path" fill="#F0FBFF"></path>
                <path d="M46.09,77.59 L35.09,77.59 C33.9854305,77.59 33.09,78.4854305 33.09,79.59 L33.09,80.59 L48.09,80.59 L48.09,79.59 C48.09,78.4854305 47.1945695,77.59 46.09,77.59 Z" id="Path" stroke="#1565C0" fill="#FFFFFF" stroke-linecap="round" stroke-linejoin="round"></path>
                <path d="M54.09,74.59 L27.09,74.59 C25.4331458,74.59 24.09,73.2468542 24.09,71.59 L24.09,69.59 L57.09,69.59 L57.09,71.59 C57.09,73.2468542 55.7468542,74.59 54.09,74.59 Z" id="Path" stroke="#1565C0" fill="#FFFFFF" stroke-linecap="round" stroke-linejoin="round"></path>
                <path d="M24.09,69.59 L24.09,52.59 C24.09,50.9331458 25.4331458,49.59 27.09,49.59 L44.09,49.59 L24.09,69.59 Z" id="Path" fill="#FFFFFF"></path>
                <path d="M57.09,69.59 L24.09,69.59 L24.09,52.59 C24.09,50.9331458 25.4331458,49.59 27.09,49.59 L54.09,49.59 C55.7468542,49.59 57.09,50.9331458 57.09,52.59 L57.09,69.59 Z" id="Path" stroke="#1565C0" stroke-linecap="round" stroke-linejoin="round"></path>
                <circle id="Oval" stroke="#1565C0" cx="40.59" cy="72.09" r="1"></circle>
                <path d="M34.37,57.8 C34.4341504,58.0360594 34.4016477,58.2879477 34.2796761,58.4999907 C34.1577045,58.7120337 33.9563077,58.8667705 33.72,58.93 L21.85,62.11 C21.6139406,62.1741504 21.3620523,62.1416477 21.1500093,62.0196761 C20.9379663,61.8977045 20.7832295,61.6963077 20.72,61.46 L16.93,47.31 C16.8660857,47.0752262 16.8988543,46.8246346 17.0209877,46.6141893 C17.1431211,46.403744 17.3444457,46.250975 17.58,46.19 L25.79,44 L31.56,47.33 L34.37,57.8 Z" id="Path" stroke="#1565C0" fill="#FFFFFF" stroke-linecap="round" stroke-linejoin="round"></path>
                <polygon id="Path" stroke="#1565C0" fill="#FFFFFF" stroke-linecap="round" stroke-linejoin="round" points="25.79 43.99 27.01 48.53 31.56 47.32"></polygon>
                <path d="M20.19,50.36 L24.74,49.14" id="Path" stroke="#1565C0" stroke-linecap="round" stroke-linejoin="round"></path>
                <path d="M20.8,52.64 L29.52,50.3" id="Path" stroke="#1565C0" stroke-linecap="round" stroke-linejoin="round"></path>
                <path d="M21.41,54.91 L30.13,52.58" id="Path" stroke="#1565C0" stroke-linecap="round" stroke-linejoin="round"></path>
                <path d="M22.02,57.19 L30.74,54.85" id="Path" stroke="#1565C0" stroke-linecap="round" stroke-linejoin="round"></path>
                <path d="M62.84,60.33 C62.7129697,60.8000932 62.2317282,61.0808174 61.76,60.96 L47.24,57.07 C46.7781907,56.9384983 46.5009439,56.4676188 46.61,56 L49.61,44.9 C49.6684605,44.6729811 49.8160626,44.4791614 50.0193687,44.3624487 C50.2226747,44.2457359 50.4644778,44.2160082 50.69,44.28 L53.25,44.96 L54.5,47.13 L64.75,49.87 C65.2214666,50.0015636 65.5013469,50.485801 65.38,50.96 L62.84,60.33 Z" id="Path" fill="#FFFFFF"></path>
                <path d="M62.84,60.33 C62.7129697,60.8000932 62.2317282,61.0808174 61.76,60.96 L47.24,57.07 C46.7781907,56.9384983 46.5009439,56.4676188 46.61,56 L49.61,44.9 C49.6684605,44.6729811 49.8160626,44.4791614 50.0193687,44.3624487 C50.2226747,44.2457359 50.4644778,44.2160082 50.69,44.28 L53.25,44.96 L54.5,47.13 L64.75,49.87 C65.2214666,50.0015636 65.5013469,50.485801 65.38,50.96 L62.84,60.33 Z" id="Path" stroke="#1565C0" stroke-linecap="round" stroke-linejoin="round"></path>
                <path d="M60.32,12.82 C60.4479642,12.292738 60.5150688,11.7525456 60.52,11.21 C60.5306876,8.57073901 59.0391642,6.15521732 56.6747065,4.98254828 C54.3102488,3.80987924 51.4846361,4.08428763 49.39,5.69 C45.6160459,1.25100941 39.4741471,-0.363218339 34.0053126,1.64656162 C28.536478,3.65634157 24.901441,8.86356328 24.9,14.69 C24.9,14.69 24.9,14.69 24.9,14.77 C24.6116121,14.728023 24.321207,14.7013191 24.03,14.69 C20.191621,14.69 17.08,17.801621 17.08,21.64 C17.08,25.478379 20.191621,28.59 24.03,28.59 L55.31,28.59 C59.090478,28.5867683 62.4340828,26.1370485 63.5766588,22.5333636 C64.7192349,18.9296788 63.3979736,15.0009272 60.31,12.82 L60.32,12.82 Z" id="Path" fill="#FFFFFF"></path>
                <path d="M60.32,12.82 C60.4479642,12.292738 60.5150688,11.7525456 60.52,11.21 C60.5306876,8.57073901 59.0391642,6.15521732 56.6747065,4.98254828 C54.3102488,3.80987924 51.4846361,4.08428763 49.39,5.69 C45.6160459,1.25100941 39.4741471,-0.363218339 34.0053126,1.64656162 C28.536478,3.65634157 24.901441,8.86356328 24.9,14.69 C24.9,14.69 24.9,14.69 24.9,14.77 C24.6116121,14.728023 24.321207,14.7013191 24.03,14.69 C20.191621,14.69 17.08,17.801621 17.08,21.64 C17.08,25.478379 20.191621,28.59 24.03,28.59 L55.31,28.59 C59.090478,28.5867683 62.4340828,26.1370485 63.5766588,22.5333636 C64.7192349,18.9296788 63.3979736,15.0009272 60.31,12.82 L60.32,12.82 Z" id="Path" stroke="#1565C0" stroke-linecap="round" stroke-linejoin="round"></path>
                <path d="M48.91,23 C48.5348635,23.3755541 48.0258185,23.5865733 47.495,23.5865733 C46.9641815,23.5865733 46.4551365,23.3755541 46.08,23 L43,19.91 L43,38.09 C43,39.4707119 41.8807119,40.59 40.5,40.59 C39.1192881,40.59 38,39.4707119 38,38.09 L38,19.91 L34.91,23 C34.1285171,23.7814829 32.8614829,23.7814829 32.08,23 C31.2985171,22.2185171 31.2985171,20.9514829 32.08,20.17 L39.08,13.17 C39.4574377,12.795627 39.968394,12.5869265 40.5,12.59 C41.028145,12.5895785 41.5350171,12.7980791 41.91,13.17 L48.91,20.17 C49.2855541,20.5451365 49.4965733,21.0541815 49.4965733,21.585 C49.4965733,22.1158185 49.2855541,22.6248635 48.91,23 Z" id="Path" fill="#F0FBFF"></path>
                <path d="M48.91,23 C48.5348635,23.3755541 48.0258185,23.5865733 47.495,23.5865733 C46.9641815,23.5865733 46.4551365,23.3755541 46.08,23 L43,19.91 L43,38.09 C43,39.4707119 41.8807119,40.59 40.5,40.59 C39.1192881,40.59 38,39.4707119 38,38.09 L38,19.91 L34.91,23 C34.1285171,23.7814829 32.8614829,23.7814829 32.08,23 C31.2985171,22.2185171 31.2985171,20.9514829 32.08,20.17 L39.08,13.17 C39.4574377,12.795627 39.968394,12.5869265 40.5,12.59 C41.028145,12.5895785 41.5350171,12.7980791 41.91,13.17 L48.91,20.17 C49.2855541,20.5451365 49.4965733,21.0541815 49.4965733,21.585 C49.4965733,22.1158185 49.2855541,22.6248635 48.91,23 Z" id="Path" stroke="#1565C0" stroke-linejoin="round"></path>
            </g>
        </g>
    </g>
</svg>