<svg width="90" height="90" xmlns="http://www.w3.org/2000/svg" fill="#008080" version="1.1" enable-background="new 0 0 90 90" xml:space="preserve">
 <g>
  <title>Layer 1</title>
  <path fill="#000" d="m46.49,2.678c-15.81,0 -28.627,12.817 -28.627,28.627c0,0.339 0.01,0.684 0.025,1.032c0.107,3.007 0.674,5.895 1.639,8.597c6.107,20.075 20.08808,46.76299 26.963,46.263s20.853,-26.186 26.962,-46.261c0.966,-2.702 1.532,-5.593 1.639,-8.6c0.017,-0.348 0.026,-0.692 0.026,-1.032c0.001,-15.809 -12.817,-28.626 -28.627,-28.626zm0,42.648c-7.743,0 -14.021,-6.278 -14.021,-14.021c0,-7.742 6.278,-14.02 14.021,-14.02c7.744,0 14.021,6.278 14.021,14.02c0,7.743 -6.277,14.021 -14.021,14.021z" id="svg_1"/>
 </g>

</svg>